<?xml version="1.0" encoding="UTF-8"?>
<svg xmlns="http://www.w3.org/2000/svg" xmlns:xlink="http://www.w3.org/1999/xlink" width="339pt" height="337pt" viewBox="0 0 339 337" version="1.1">
<g id="surface1">
<path style=" stroke:none;fill-rule:evenodd;fill:rgb(17.999268%,18.798828%,57.299805%);fill-opacity:1;" d="M 169.292969 0.730469 C 262.652344 0.730469 338.335938 75.792969 338.335938 168.386719 C 338.335938 260.976563 262.652344 336.039063 169.292969 336.039063 C 75.933594 336.039063 0.25 260.976563 0.25 168.386719 C 0.25 75.792969 75.933594 0.730469 169.292969 0.730469 "/>
<path style=" stroke:none;fill-rule:evenodd;fill:rgb(33.299255%,77.2995%,81.599426%);fill-opacity:1;" d="M 58.324219 128.433594 C 76.632813 102.023438 112.652344 86.886719 147.972656 80.304688 L 147.972656 80.300781 C 158.347656 44.035156 174.832031 40.867188 192.078125 41.835938 C 182.890625 47.828125 174.464844 54.582031 168.128906 63.429688 C 167.15625 68.226563 166.167969 73.007813 165.15625 77.753906 C 204.515625 73.363281 239.078125 79.472656 241.726563 92.109375 C 213.308594 88.191406 186.613281 86.824219 162.582031 89.394531 C 160.292969 102.132813 157.101563 113.667969 151.390625 121.84375 L 148.882813 91.347656 C 119.773438 96.613281 95.230469 108.632813 77.15625 130.226563 C 129.699219 138.222656 186.25 133.566406 252.039063 99.734375 C 256.949219 67.078125 276.609375 54.757813 299.125 46.371094 C 280.546875 64.519531 269.648438 88.476563 268.632813 119.910156 L 252.488281 230.167969 C 251.546875 229.796875 250.558594 229.566406 249.535156 229.503906 C 241.871094 229.039063 235.09375 237.988281 234.398438 249.488281 C 234.351563 250.234375 234.332031 250.972656 234.339844 251.703125 C 223.101563 261.449219 209.746094 269.640625 194.910156 278.855469 C 192.433594 274.308594 188.703125 271.335938 184.378906 271.070313 C 184.070313 271.054688 183.765625 271.050781 183.457031 271.058594 C 182.257813 270.496094 180.980469 270.15625 179.644531 270.074219 C 177.859375 269.96875 176.117188 270.332031 174.480469 271.089844 C 222.097656 245.273438 240.714844 222.09375 235.191406 201.109375 C 220.253906 212.203125 191.199219 216.398438 153.917969 216.578125 C 155.910156 228.402344 152.570313 236.460938 145.730469 242.050781 L 92.050781 271.164063 C 82.667969 275.351563 81.554688 277.972656 90.230469 278.746094 C 119.761719 285.5625 142.09375 282.566406 162.710938 277.230469 C 166.320313 275.417969 169.785156 273.617188 173.113281 271.828125 C 167.789063 275.128906 163.78125 282.707031 163.234375 291.742188 C 163.15625 293.011719 163.152344 294.261719 163.210938 295.480469 C 160.578125 296.394531 157.902344 297.210938 155.179688 297.929688 C 118.691406 299.210938 85.800781 295.773438 69.984375 287.171875 C 60.363281 281.242188 62.675781 274.570313 72.226563 267.441406 L 126.035156 239.191406 C 134.585938 235.21875 139.699219 228.730469 140.386719 219.011719 C 113.457031 222.511719 91.679688 218.800781 76.710938 205.558594 C 59.15625 185.183594 57.847656 157.222656 58.324219 128.433594 "/>
<path style="fill:none;stroke-width:21.1012;stroke-linecap:butt;stroke-linejoin:miter;stroke:rgb(17.999268%,18.798828%,57.299805%);stroke-opacity:1;stroke-miterlimit:22.9256;" d="M 583.242188 2085.664063 C 766.328125 2349.765625 1126.523438 2501.132813 1479.726563 2566.953125 L 1479.726563 2566.992188 C 1583.476563 2929.648438 1748.320313 2961.328125 1920.78125 2951.640625 C 1828.90625 2891.71875 1744.648438 2824.179688 1681.289063 2735.703125 C 1671.5625 2687.734375 1661.679688 2639.921875 1651.5625 2592.460938 C 2045.15625 2636.367188 2390.78125 2575.273438 2417.265625 2448.90625 C 2133.085938 2488.085938 1866.132813 2501.757813 1625.820313 2476.054688 C 1602.929688 2348.671875 1571.015625 2233.320313 1513.90625 2151.5625 L 1488.828125 2456.523438 C 1197.734375 2403.867188 952.304688 2283.671875 771.5625 2067.734375 C 1296.992188 1987.773438 1862.5 2034.335938 2520.390625 2372.65625 C 2569.492188 2699.21875 2766.09375 2822.421875 2991.25 2906.289063 C 2805.46875 2724.804688 2696.484375 2485.234375 2686.328125 2170.898438 L 2524.882813 1068.320313 C 2515.46875 1072.03125 2505.585938 1074.335938 2495.351563 1074.960938 C 2418.710938 1079.609375 2350.9375 990.117188 2343.984375 875.117188 C 2343.515625 867.65625 2343.320313 860.273438 2343.398438 852.96875 C 2231.015625 755.507813 2097.460938 673.59375 1949.101563 581.445313 C 1924.335938 626.914063 1887.03125 656.640625 1843.789063 659.296875 C 1840.703125 659.453125 1837.65625 659.492188 1834.570313 659.414063 C 1822.578125 665.039063 1809.804688 668.4375 1796.445313 669.257813 C 1778.59375 670.3125 1761.171875 666.679688 1744.804688 659.101563 C 2220.976563 917.265625 2407.148438 1149.0625 2351.914063 1358.90625 C 2202.539063 1247.96875 1911.992188 1206.015625 1539.179688 1204.21875 C 1559.101563 1085.976563 1525.703125 1005.351563 1457.304688 949.492188 L 920.507813 658.359375 C 826.679688 616.484375 815.546875 590.273438 902.304688 582.539063 C 1197.617188 514.375 1420.9375 544.335938 1627.109375 597.695313 C 1663.203125 615.820313 1697.851563 633.828125 1731.132813 651.71875 C 1677.890625 618.710938 1637.8125 542.929688 1632.34375 452.578125 C 1631.5625 439.882813 1631.523438 427.382813 1632.109375 415.195313 C 1605.78125 406.054688 1579.023438 397.890625 1551.796875 390.703125 C 1186.914063 377.890625 858.007813 412.265625 699.84375 498.28125 C 603.632813 557.578125 626.757813 624.296875 722.265625 695.585938 L 1260.351563 978.085938 C 1345.859375 1017.8125 1396.992188 1082.695313 1403.867188 1179.882813 C 1134.570313 1144.882813 916.796875 1181.992188 767.109375 1314.414063 C 591.5625 1518.164063 578.476563 1797.773438 583.242188 2085.664063 Z M 583.242188 2085.664063 " transform="matrix(0.1,0,0,-0.1,0,337)"/>
<path style=" stroke:none;fill-rule:evenodd;fill:rgb(33.299255%,77.2995%,81.599426%);fill-opacity:1;" d="M 168.128906 63.429688 L 266.527344 66.53125 C 275.207031 56.796875 286.734375 50.988281 299.125 46.371094 L 187.628906 44.851563 C 180.183594 50.101563 173.425781 56.03125 168.128906 63.429688 "/>
<path style="fill:none;stroke-width:21.1012;stroke-linecap:butt;stroke-linejoin:miter;stroke:rgb(17.999268%,18.798828%,57.299805%);stroke-opacity:1;stroke-miterlimit:22.9256;" d="M 1681.289063 2735.703125 L 2665.273438 2704.6875 C 2752.070313 2802.03125 2867.34375 2860.117188 2991.25 2906.289063 L 1876.289063 2921.484375 C 1801.835938 2868.984375 1734.257813 2809.6875 1681.289063 2735.703125 Z M 1681.289063 2735.703125 " transform="matrix(0.1,0,0,-0.1,0,337)"/>
<path style=" stroke:none;fill-rule:evenodd;fill:rgb(17.999268%,18.798828%,57.299805%);fill-opacity:1;" d="M 124.011719 133.585938 L 117.195313 133.589844 L 132.675781 198.054688 Z M 124.011719 133.585938 "/>
<path style=" stroke:none;fill-rule:evenodd;fill:rgb(17.999268%,18.798828%,57.299805%);fill-opacity:1;" d="M 138.746094 132.976563 L 131.632813 133.375 L 143.175781 196.480469 Z M 138.746094 132.976563 "/>
<path style=" stroke:none;fill-rule:evenodd;fill:rgb(17.999268%,18.798828%,57.299805%);fill-opacity:1;" d="M 151.210938 131.804688 L 145.484375 132.417969 L 154.34375 192.628906 Z M 151.210938 131.804688 "/>
<path style=" stroke:none;fill-rule:evenodd;fill:rgb(17.999268%,18.798828%,57.299805%);fill-opacity:1;" d="M 164.457031 129.886719 L 160.121094 130.589844 L 165.492188 194.117188 Z M 164.457031 129.886719 "/>
<path style=" stroke:none;fill-rule:evenodd;fill:rgb(17.999268%,18.798828%,57.299805%);fill-opacity:1;" d="M 178.402344 127.113281 L 173.972656 128.078125 L 178.089844 190.964844 Z M 178.402344 127.113281 "/>
<path style=" stroke:none;fill-rule:evenodd;fill:rgb(17.999268%,18.798828%,57.299805%);fill-opacity:1;" d="M 191.980469 123.671875 L 187.6875 124.839844 L 190.167969 186.765625 Z M 191.980469 123.671875 "/>
<path style=" stroke:none;fill-rule:evenodd;fill:rgb(17.999268%,18.798828%,57.299805%);fill-opacity:1;" d="M 207.355469 118.886719 L 201.769531 120.734375 L 203.558594 182.039063 Z M 207.355469 118.886719 "/>
<path style=" stroke:none;fill-rule:evenodd;fill:rgb(17.999268%,18.798828%,57.299805%);fill-opacity:1;" d="M 220.972656 113.871094 L 215.675781 115.910156 L 216.683594 176.789063 Z M 220.972656 113.871094 "/>
<path style=" stroke:none;fill-rule:evenodd;fill:rgb(17.999268%,18.798828%,57.299805%);fill-opacity:1;" d="M 236.648438 107.199219 L 231.371094 109.550781 L 228.496094 171.800781 Z M 236.648438 107.199219 "/>
<path style=" stroke:none;fill-rule:evenodd;fill:rgb(17.999268%,18.798828%,57.299805%);fill-opacity:1;" d="M 252.039063 99.734375 L 247.546875 102.007813 L 240.835938 169.699219 Z M 252.039063 99.734375 "/>
<path style=" stroke:none;fill-rule:evenodd;fill:rgb(33.299255%,77.2995%,81.599426%);fill-opacity:1;" d="M 198.050781 294.566406 C 198.808594 282.09375 192.6875 271.574219 184.378906 271.070313 C 176.074219 270.566406 168.726563 280.269531 167.96875 292.738281 C 167.210938 305.210938 173.332031 315.726563 181.640625 316.230469 C 189.945313 316.734375 197.296875 307.035156 198.050781 294.566406 "/>
<path style="fill:none;stroke-width:21.1012;stroke-linecap:butt;stroke-linejoin:miter;stroke:rgb(17.999268%,18.798828%,57.299805%);stroke-opacity:1;stroke-miterlimit:22.9256;" d="M -1980.507779 -424.336096 C -1988.085894 -549.062659 -1926.874948 -654.257967 -1843.828072 -659.297023 C -1760.742134 -664.336078 -1687.26558 -567.304822 -1679.687465 -442.617322 C -1672.10935 -317.890759 -1733.320295 -212.734514 -1816.406233 -207.695458 C -1899.453109 -202.656402 -1972.968726 -299.648595 -1980.507779 -424.336096 Z M -1980.507779 -424.336096 " transform="matrix(-0.1,-0.000000008,-0.000000008,0.1,0,337)"/>
<path style=" stroke:none;fill-rule:evenodd;fill:rgb(13.699341%,12.199402%,12.5%);fill-opacity:1;" d="M 192.632813 295.171875 C 194.070313 289.226563 191.027344 284.222656 185.835938 284.003906 C 184.148438 283.929688 182.441406 284.371094 180.855469 285.207031 C 181.640625 285.027344 182.433594 284.949219 183.226563 284.980469 C 188.417969 285.203125 191.460938 290.203125 190.023438 296.152344 C 189.054688 300.164063 186.292969 303.582031 183.003906 305.3125 C 187.371094 304.316406 191.414063 300.214844 192.632813 295.171875 "/>
<path style="fill:none;stroke-width:29.8084;stroke-linecap:butt;stroke-linejoin:miter;stroke:rgb(17.999268%,18.798828%,57.299805%);stroke-opacity:1;stroke-miterlimit:22.9256;" d="M 2413.228255 -1388.369257 C 2484.631927 -1339.737947 2500.204424 -1258.484742 2447.926941 -1206.972848 C 2430.963313 -1190.195979 2408.907743 -1178.633668 2384.380306 -1172.351098 C 2394.303634 -1177.913644 2403.346072 -1184.613848 2411.351775 -1192.459452 C 2463.592233 -1244.012253 2448.056761 -1325.224551 2376.616063 -1373.896769 C 2328.447902 -1406.7234 2267.136404 -1416.33254 2216.299253 -1403.26992 C 2271.462806 -1434.245065 2352.745744 -1429.62118 2413.228255 -1388.369257 Z M 2413.228255 -1388.369257 " transform="matrix(0.0524902,-0.0475232,-0.0475104,-0.0524761,0,337)"/>
<path style=" stroke:none;fill-rule:evenodd;fill:rgb(33.299255%,77.2995%,81.599426%);fill-opacity:1;" d="M 262.144531 251.175781 C 262.84375 239.671875 257.199219 229.96875 249.535156 229.503906 C 241.871094 229.039063 235.09375 237.988281 234.398438 249.488281 C 233.699219 260.992188 239.34375 270.695313 247.007813 271.160156 C 254.671875 271.625 261.449219 262.675781 262.144531 251.175781 "/>
<path style="fill:none;stroke-width:21.1011;stroke-linecap:butt;stroke-linejoin:miter;stroke:rgb(17.999268%,18.798828%,57.299805%);stroke-opacity:1;stroke-miterlimit:22.9256;" d="M -2621.445252 -858.242345 C -2628.437432 -973.281408 -2571.992113 -1070.312654 -2495.351487 -1074.961087 C -2418.710862 -1079.60952 -2350.937431 -990.117329 -2343.984314 -875.117328 C -2336.992134 -760.078265 -2393.437454 -663.047019 -2470.078079 -658.398586 C -2546.718704 -653.750153 -2614.492135 -743.242344 -2621.445252 -858.242345 Z M -2621.445252 -858.242345 " transform="matrix(-0.1,-0.000000006,-0.000000007,0.1,0,337)"/>
<path style=" stroke:none;fill-rule:evenodd;fill:rgb(13.699341%,12.199402%,12.5%);fill-opacity:1;" d="M 257.148438 251.734375 C 258.472656 246.25 255.664063 241.636719 250.878906 241.429688 C 249.320313 241.363281 247.746094 241.773438 246.28125 242.542969 C 247.007813 242.375 247.738281 242.304688 248.46875 242.335938 C 253.257813 242.539063 256.066406 247.152344 254.742188 252.636719 C 253.847656 256.339844 251.300781 259.492188 248.265625 261.089844 C 252.292969 260.167969 256.023438 256.386719 257.148438 251.734375 "/>
<path style="fill:none;stroke-width:29.809;stroke-linecap:butt;stroke-linejoin:miter;stroke:rgb(17.999268%,18.798828%,57.299805%);stroke-opacity:1;stroke-miterlimit:22.9256;" d="M 3500.340252 -1545.194504 C 3566.187735 -1500.315499 3580.55205 -1425.411086 3532.37662 -1377.835934 C 3516.688782 -1362.362843 3496.32024 -1351.73235 3473.690415 -1345.902396 C 3482.889064 -1351.032197 3491.243863 -1357.258765 3498.591233 -1364.433952 C 3546.766662 -1412.009104 3532.443243 -1486.950554 3466.59576 -1531.829559 C 3422.130445 -1562.128678 3365.586975 -1570.993266 3318.667765 -1558.946983 C 3369.568985 -1587.477636 3444.501913 -1583.208127 3500.340252 -1545.194504 Z M 3500.340252 -1545.194504 " transform="matrix(0.0524911,-0.047524,-0.0475097,-0.0524753,0,337)"/>
<path style=" stroke:none;fill-rule:evenodd;fill:rgb(33.299255%,77.2995%,81.599426%);fill-opacity:1;" d="M 65.359375 283.210938 L 64.253906 282.859375 C 57.515625 312.621094 83.941406 318.808594 89.589844 293.777344 C 81.640625 292.078125 74.964844 289.882813 69.984375 287.171875 C 67.894531 285.886719 66.371094 284.5625 65.359375 283.210938 "/>
<path style="fill:none;stroke-width:21.1012;stroke-linecap:butt;stroke-linejoin:miter;stroke:rgb(17.999268%,18.798828%,57.299805%);stroke-opacity:1;stroke-miterlimit:22.9256;" d="M 653.59375 537.890625 L 642.539063 541.40625 C 575.15625 243.789063 839.414063 181.914063 895.898438 432.226563 C 816.40625 449.21875 749.648438 471.171875 699.84375 498.28125 C 678.945313 511.132813 663.710938 524.375 653.59375 537.890625 Z M 653.59375 537.890625 " transform="matrix(0.1,0,0,-0.1,0,337)"/>
<path style=" stroke:none;fill-rule:evenodd;fill:rgb(33.299255%,77.2995%,81.599426%);fill-opacity:1;" d="M 135.34375 247.683594 C 141.789063 273.277344 157.933594 261.902344 152.296875 233.738281 C 150.796875 236.996094 148.5625 239.734375 145.730469 242.050781 L 135.34375 247.683594 "/>
<path style="fill:none;stroke-width:21.1012;stroke-linecap:butt;stroke-linejoin:miter;stroke:rgb(17.999268%,18.798828%,57.299805%);stroke-opacity:1;stroke-miterlimit:22.9256;" d="M 1353.4375 893.164063 C 1417.890625 637.226563 1579.335938 750.976563 1522.96875 1032.617188 C 1507.96875 1000.039063 1485.625 972.65625 1457.304688 949.492188 Z M 1353.4375 893.164063 " transform="matrix(0.1,0,0,-0.1,0,337)"/>
</g>
</svg>
